<svg xmlns="http://www.w3.org/2000/svg" enable-background="new 0 0 28 28" viewBox="0 0 28 28"><circle cx="14.475" cy="14.346" r="10.225" fill="#DEFF8F"/><path d="M23.001,17.529c-0.196,0-0.383-0.117-0.463-0.31c-0.104-0.255,0.018-0.547,0.273-0.652c1.36-0.559,2.128-1.246,2.161-1.936c0.08-1.704-4.342-3.817-10.815-4.126c-6.485-0.311-11.08,1.374-11.161,3.078c-0.041,0.89,1.148,1.892,3.185,2.681c0.258,0.1,0.386,0.39,0.285,0.647c-0.1,0.258-0.39,0.383-0.646,0.286c-2.529-0.98-3.887-2.28-3.821-3.661c0.143-2.989,6.403-4.303,12.206-4.029c5.811,0.277,11.909,2.185,11.767,5.173c-0.037,0.778-0.55,1.897-2.78,2.813C23.129,17.517,23.064,17.529,23.001,17.529z"/><path d="M8.789,24.596c-0.44,0-0.836-0.108-1.183-0.326c-2.534-1.589-0.615-7.685,2.476-12.612c3.093-4.928,7.751-9.308,10.28-7.716c1.162,0.729,1.458,2.567,0.835,5.175c-0.063,0.268-0.333,0.435-0.603,0.37c-0.269-0.064-0.435-0.334-0.37-0.603c0.501-2.096,0.354-3.626-0.394-4.096c-1.44-0.904-5.455,1.909-8.901,7.401C7.484,17.68,6.693,22.517,8.138,23.423c0.694,0.436,2.025-0.008,3.559-1.188c0.218-0.169,0.531-0.129,0.701,0.091c0.168,0.219,0.127,0.533-0.092,0.701C10.955,24.068,9.764,24.596,8.789,24.596z"/><path d="M18.342,25.081c-2.645,0-6.195-4.312-8.484-8.929c-1.389-2.802-2.306-5.637-2.582-7.983c-0.297-2.516,0.193-4.226,1.38-4.813s2.843,0.057,4.667,1.816c0.198,0.192,0.204,0.508,0.012,0.707c-0.19,0.199-0.507,0.205-0.707,0.013C11.175,4.488,9.856,3.878,9.099,4.25c-0.756,0.375-1.066,1.796-0.83,3.801c0.263,2.235,1.146,4.955,2.485,7.656c2.878,5.807,6.586,9.015,8.116,8.254c1.448-0.718,1.266-5.209-1.314-10.75c-0.117-0.25-0.008-0.548,0.242-0.664c0.249-0.115,0.547-0.009,0.664,0.242c2.348,5.043,3.395,10.808,0.852,12.068C19.008,25.009,18.683,25.081,18.342,25.081z"/><path d="M14.001,15.999c-1.103,0-2-0.897-2-2s0.897-2,2-2s2,0.897,2,2S15.104,15.999,14.001,15.999z M14.001,12.999c-0.552,0-1,0.449-1,1s0.448,1,1,1s1-0.449,1-1S14.553,12.999,14.001,12.999z"/></svg>